<svg id="Text_Shapes_Black" data-name="Text Shapes Black" xmlns="http://www.w3.org/2000/svg" width="1024" height="1024" viewBox="0 0 1024 1024">
  <defs>
    <style>
      .cls-1 {
        fill: #41bbb3;
      }

      .cls-1, .cls-2 {
        fill-rule: evenodd;
      }

      .cls-2 {
        fill: #fff;
      }
    </style>
  </defs>
  <path class="cls-1" d="M1003.52,0.011H0v1024H1024V0.011h-20.48Zm-20.479,40.96v942.08H40.961V40.971h942.08Z"/>
  <path id="EN._copy_2" data-name="EN. copy 2" class="cls-2" d="M282.121,489.9H194.632V437.189H297.007V400.28H149.064V621.434H297.31V584.828H194.632V525.59h87.489V489.9ZM503.883,400.28H458.468V546.1L369.611,400.28H324.043V621.434h45.568V475.922l88.7,145.512h45.567V400.28Zm46.175,216.37q6.986,6.458,17.772,6.455,10.935,0,17.923-6.455t6.987-16.785q0-10.48-7.063-17.011t-17.847-6.532q-10.634,0-17.7,6.532t-7.063,17.011Q543.071,610.2,550.058,616.65ZM193.587,674.8H148.019V895.957h45.568V674.8ZM417.475,780.519q0-32.5-11.771-57.339t-33.265-38.125q-21.5-13.288-49.137-13.29t-49.137,13.29q-21.5,13.293-33.264,38.125t-11.772,57.491v10.937q0.15,31.9,12,56.427t33.416,37.745Q296.112,899,323.606,899q27.8,0,49.289-13.366t33.036-37.973q11.542-24.607,11.544-57.264v-9.873ZM371.3,791.152q-0.153,34.482-12.455,52.478t-35.239,18q-23.392,0-35.846-18.683t-12.455-52.555V779.608q0.148-34.477,12.606-52.327T323.3,709.434q23.086,0,35.543,18.075T371.3,780.368v10.784ZM194.622,125.757H149.055V346.911H291.377V310.305H194.622V125.757Zm244.546,0V272.94q-0.609,40.406-39.036,40.4-18.381,0-28.784-9.949t-10.405-31.669V125.757H315.376V273.092q0.456,35.849,23.239,56.351t61.517,20.506q39.338,0,62.047-21.113t22.708-57.415V125.757H439.168ZM590.756,346.911q29.01-.15,52.1-13.366a90.839,90.839,0,0,0,35.77-37.214q12.681-24,12.683-54.833V231.321q0-30.833-12.911-55.06A91.631,91.631,0,0,0,642.475,138.9Q619.464,125.76,590.3,125.757H522.253V346.911h68.5ZM590.3,162.666q26.885,0,40.859,17.392t13.974,51.111v11.7q-0.306,32.506-14.43,49.973t-40.859,17.467H567.82V162.666H590.3Z"/>
</svg>
