<svg viewBox="0 0 32 40" fill="none" xmlns="http://www.w3.org/2000/svg">
  <path d="M18.9882 25.4798L12.6582 21.8398V29.1198L18.9882 25.4798Z" fill="#8ACEDD"/>
  <path d="M6.36906 29.0804L0.0390625 25.4404V32.7204L6.36906 29.0804Z" fill="#8ACEDD"/>
  <path d="M6.36906 18.1996L0.0390625 14.5596V21.8396L6.36906 18.1996Z" fill="#8ACEDD"/>
  <path d="M12.6581 21.8402L6.32812 18.2002V25.4802L12.6581 21.8402Z" fill="#8ACEDD"/>
  <path d="M18.9882 3.64L12.6582 0V7.28L18.9882 3.64Z" fill="#8ACEDD"/>
  <path d="M25.2792 7.27965L18.9492 3.63965V10.9196L25.2792 7.27965Z" fill="#8ACEDD"/>
  <path d="M6.36906 10.9203L0.0390625 7.28027V14.5603L6.36906 10.9203Z" fill="#8ACEDD"/>
  <path d="M12.6581 7.27965L6.32812 3.63965V10.9196L12.6581 7.27965Z" fill="#8ACEDD"/>
  <path d="M6.33008 32.7201L12.6601 29.0801V36.3601L6.33008 32.7201Z" fill="#45BCD1"/>
  <path d="M12.6191 36.3197L18.9491 32.6797V39.9597L12.6191 36.3197Z" fill="#45BCD1"/>
  <path d="M6.33008 25.4798L12.6601 21.8398V29.1198L6.33008 25.4798Z" fill="#45BCD1"/>
  <path d="M12.6191 14.5599L18.9491 10.9199V18.1999L12.6191 14.5599Z" fill="#45BCD1"/>
  <path d="M12.6191 7.27965L18.9491 3.63965V10.9196L12.6191 7.27965Z" fill="#45BCD1"/>
  <path d="M25.1992 21.8392L31.5292 18.1992V25.4792L25.1992 21.8392Z" fill="#45BCD1"/>
  <path d="M0 14.5599L6.33 10.9199V18.1999L0 14.5599Z" fill="#45BCD1"/>
  <path d="M0 7.31969L6.33 3.67969V10.9597L0 7.31969Z" fill="#45BCD1"/>
  <path d="M12.6191 29.0804L18.9491 25.4404V32.7204L12.6191 29.0804Z" fill="#AEC90B"/>
  <path d="M25.1992 10.9203L31.5292 7.28027V14.5603L25.1992 10.9203Z" fill="#AEC90B"/>
  <path d="M0 21.8402L6.33 18.2002V25.4802L0 21.8402Z" fill="#AEC90B"/>
  <path d="M6.33008 3.68004L12.6601 0.0400391V7.32004L6.33008 3.68004Z" fill="#AEC90B"/>
  <path d="M18.9902 32.7201L12.6602 29.0801V36.3601L18.9902 32.7201Z" fill="#6AB657"/>
  <path d="M25.2792 36.3607L18.9492 32.7207V40.0007L25.2792 36.3607Z" fill="#6AB657"/>
  <path d="M25.2792 14.5599L18.9492 10.9199V18.1999L25.2792 14.5599Z" fill="#6AB657"/>
  <path d="M31.5702 32.7601L25.2402 29.1201V36.4001L31.5702 32.7601Z" fill="#6AB657"/>
  <path d="M31.5702 25.4798L25.2402 21.8398V29.1198L31.5702 25.4798Z" fill="#6AB657"/>
  <path d="M18.9902 10.9203L12.6602 7.28027V14.5603L18.9902 10.9203Z" fill="#6AB657"/>
  <path d="M31.5702 18.2005L25.2402 14.5605V21.8405L31.5702 18.2005Z" fill="#6AB657"/>
  <path d="M18.9102 18.1996L25.2402 14.5596V21.8396L18.9102 18.1996Z" fill="#1CA538"/>
  <path d="M18.9102 32.7191L25.2402 29.0791V36.3591L18.9102 32.7191Z" fill="#1CA538"/>
  <path d="M25.1992 29.1195L31.5292 25.4795V32.7595L25.1992 29.1195Z" fill="#1CA538"/>
</svg>
